<?xml version="1.0" standalone="no"?><!DOCTYPE svg PUBLIC "-//W3C//DTD SVG 1.1//EN" "http://www.w3.org/Graphics/SVG/1.1/DTD/svg11.dtd"><svg t="1768966686517" class="icon" viewBox="0 0 1024 1024" version="1.1" xmlns="http://www.w3.org/2000/svg" p-id="21521" xmlns:xlink="http://www.w3.org/1999/xlink" width="200" height="200"><path d="M514.895252 479.123024a6.146599 6.146599 0 0 1-6.10912 0L98.463187 245.065042a5.959202 5.959202 0 0 1-2.960861-5.134659 6.109119 6.109119 0 0 1 2.960861-5.134659L508.786132 0.8127a6.146599 6.146599 0 0 1 6.10912 0l410.322945 233.945545a5.959202 5.959202 0 0 1 0 10.269317z m35.380422 70.94824a5.996682 5.996682 0 0 1 2.960861-5.134658l410.660259-233.945545a6.109119 6.109119 0 0 1 9.144939 5.134659v467.966047a6.109119 6.109119 0 0 1-3.073299 5.134659l-410.322945 233.983024a6.296516 6.296516 0 0 1-6.109119 0 6.034161 6.034161 0 0 1-3.035821-5.134659V550.221181z m-79.943263-5.172138a5.996682 5.996682 0 0 1 3.03582 5.134659v467.966048a6.07164 6.07164 0 0 1-9.144939 5.134658L53.900347 789.226426a5.959202 5.959202 0 0 1-3.03582-5.134659V316.275637a6.07164 6.07164 0 0 1 9.144939-5.134659l410.322945 233.758148z" fill="#1A81FF" p-id="21522"></path></svg>